<mxfile host="app.diagrams.net" modified="2022-06-06T01:30:22.945Z" agent="5.0 (Macintosh; Intel Mac OS X 10_15_7) AppleWebKit/537.36 (KHTML, like Gecko) Chrome/102.0.5005.61 Safari/537.36" etag="J89yEf97z6HvkhEIQS2Z" version="19.0.0" type="github">
  <diagram id="R2lEEEUBdFMjLlhIrx00" name="Page-1">
    <mxGraphModel dx="1908" dy="715" grid="1" gridSize="10" guides="1" tooltips="1" connect="1" arrows="1" fold="1" page="1" pageScale="1" pageWidth="850" pageHeight="1100" math="0" shadow="0" extFonts="Permanent Marker^https://fonts.googleapis.com/css?family=Permanent+Marker">
      <root>
        <mxCell id="0" />
        <mxCell id="1" parent="0" />
        <mxCell id="F9EN7Q-eqjH8XVya4wf_-4" value="User" style="whiteSpace=wrap;html=1;align=center;rounded=0;" parent="1" vertex="1">
          <mxGeometry x="150" y="130" width="100" height="40" as="geometry" />
        </mxCell>
        <mxCell id="F9EN7Q-eqjH8XVya4wf_-5" value="Email" style="ellipse;whiteSpace=wrap;html=1;align=center;fontStyle=4;rounded=0;" parent="1" vertex="1">
          <mxGeometry y="30" width="100" height="40" as="geometry" />
        </mxCell>
        <mxCell id="F9EN7Q-eqjH8XVya4wf_-6" value="" style="endArrow=none;html=1;rounded=0;" parent="1" source="F9EN7Q-eqjH8XVya4wf_-5" target="F9EN7Q-eqjH8XVya4wf_-4" edge="1">
          <mxGeometry relative="1" as="geometry">
            <mxPoint x="340" y="380" as="sourcePoint" />
            <mxPoint x="500" y="380" as="targetPoint" />
          </mxGeometry>
        </mxCell>
        <mxCell id="F9EN7Q-eqjH8XVya4wf_-8" value="" style="endArrow=none;html=1;rounded=0;" parent="1" source="F9EN7Q-eqjH8XVya4wf_-9" target="F9EN7Q-eqjH8XVya4wf_-4" edge="1">
          <mxGeometry relative="1" as="geometry">
            <mxPoint x="370.9487863551892" y="319.0484829439865" as="sourcePoint" />
            <mxPoint x="469.9957142857142" y="350" as="targetPoint" />
          </mxGeometry>
        </mxCell>
        <mxCell id="F9EN7Q-eqjH8XVya4wf_-9" value="Password" style="ellipse;whiteSpace=wrap;html=1;align=center;rounded=0;" parent="1" vertex="1">
          <mxGeometry x="115" y="20" width="100" height="40" as="geometry" />
        </mxCell>
        <mxCell id="F9EN7Q-eqjH8XVya4wf_-10" value="" style="endArrow=none;html=1;rounded=0;" parent="1" source="F9EN7Q-eqjH8XVya4wf_-11" target="F9EN7Q-eqjH8XVya4wf_-4" edge="1">
          <mxGeometry relative="1" as="geometry">
            <mxPoint x="450.9487863551892" y="329.0484829439865" as="sourcePoint" />
            <mxPoint x="268.8888888888889" y="140" as="targetPoint" />
          </mxGeometry>
        </mxCell>
        <mxCell id="F9EN7Q-eqjH8XVya4wf_-11" value="First Name" style="ellipse;whiteSpace=wrap;html=1;align=center;rounded=0;" parent="1" vertex="1">
          <mxGeometry x="225" y="30" width="100" height="40" as="geometry" />
        </mxCell>
        <mxCell id="F9EN7Q-eqjH8XVya4wf_-13" value="Last Name" style="ellipse;whiteSpace=wrap;html=1;align=center;rounded=0;" parent="1" vertex="1">
          <mxGeometry x="280" y="80" width="100" height="40" as="geometry" />
        </mxCell>
        <mxCell id="F9EN7Q-eqjH8XVya4wf_-14" value="Nickname" style="ellipse;whiteSpace=wrap;html=1;align=center;fontStyle=4;rounded=0;" parent="1" vertex="1">
          <mxGeometry x="-105" y="60" width="100" height="40" as="geometry" />
        </mxCell>
        <mxCell id="F9EN7Q-eqjH8XVya4wf_-15" value="" style="endArrow=none;html=1;rounded=0;" parent="1" source="F9EN7Q-eqjH8XVya4wf_-14" target="F9EN7Q-eqjH8XVya4wf_-4" edge="1">
          <mxGeometry relative="1" as="geometry">
            <mxPoint x="340" y="460" as="sourcePoint" />
            <mxPoint x="150" y="212.1428571428571" as="targetPoint" />
          </mxGeometry>
        </mxCell>
        <mxCell id="F9EN7Q-eqjH8XVya4wf_-16" value="" style="shape=link;html=1;rounded=0;" parent="1" source="F9EN7Q-eqjH8XVya4wf_-18" target="F9EN7Q-eqjH8XVya4wf_-4" edge="1">
          <mxGeometry relative="1" as="geometry">
            <mxPoint x="380" y="150" as="sourcePoint" />
            <mxPoint x="510" y="330" as="targetPoint" />
          </mxGeometry>
        </mxCell>
        <mxCell id="F9EN7Q-eqjH8XVya4wf_-17" value="N" style="resizable=0;html=1;align=right;verticalAlign=bottom;rounded=0;" parent="F9EN7Q-eqjH8XVya4wf_-16" connectable="0" vertex="1">
          <mxGeometry x="1" relative="1" as="geometry">
            <mxPoint x="70" as="offset" />
          </mxGeometry>
        </mxCell>
        <mxCell id="F9EN7Q-eqjH8XVya4wf_-18" value="Lives In" style="shape=rhombus;double=1;perimeter=rhombusPerimeter;whiteSpace=wrap;html=1;align=center;rounded=0;" parent="1" vertex="1">
          <mxGeometry x="370" y="120" width="120" height="60" as="geometry" />
        </mxCell>
        <mxCell id="F9EN7Q-eqjH8XVya4wf_-19" value="" style="endArrow=none;html=1;rounded=0;" parent="1" source="F9EN7Q-eqjH8XVya4wf_-18" target="F9EN7Q-eqjH8XVya4wf_-21" edge="1">
          <mxGeometry relative="1" as="geometry">
            <mxPoint x="480" y="150" as="sourcePoint" />
            <mxPoint x="640" y="150" as="targetPoint" />
          </mxGeometry>
        </mxCell>
        <mxCell id="F9EN7Q-eqjH8XVya4wf_-20" value="1" style="resizable=0;html=1;align=right;verticalAlign=bottom;rounded=0;" parent="F9EN7Q-eqjH8XVya4wf_-19" connectable="0" vertex="1">
          <mxGeometry x="1" relative="1" as="geometry">
            <mxPoint x="-70" as="offset" />
          </mxGeometry>
        </mxCell>
        <mxCell id="F9EN7Q-eqjH8XVya4wf_-21" value="Postal Code Area" style="whiteSpace=wrap;html=1;align=center;rounded=0;" parent="1" vertex="1">
          <mxGeometry x="590" y="130" width="100" height="40" as="geometry" />
        </mxCell>
        <mxCell id="F9EN7Q-eqjH8XVya4wf_-26" value="Postal Code" style="ellipse;whiteSpace=wrap;html=1;align=center;fontStyle=4;rounded=0;" parent="1" vertex="1">
          <mxGeometry x="460" y="50" width="100" height="40" as="geometry" />
        </mxCell>
        <mxCell id="F9EN7Q-eqjH8XVya4wf_-27" value="" style="endArrow=none;html=1;rounded=0;" parent="1" source="F9EN7Q-eqjH8XVya4wf_-26" target="F9EN7Q-eqjH8XVya4wf_-21" edge="1">
          <mxGeometry relative="1" as="geometry">
            <mxPoint x="790" y="390" as="sourcePoint" />
            <mxPoint x="600" y="87.14285714285711" as="targetPoint" />
          </mxGeometry>
        </mxCell>
        <mxCell id="F9EN7Q-eqjH8XVya4wf_-28" value="" style="endArrow=none;html=1;rounded=0;" parent="1" source="F9EN7Q-eqjH8XVya4wf_-29" target="F9EN7Q-eqjH8XVya4wf_-21" edge="1">
          <mxGeometry relative="1" as="geometry">
            <mxPoint x="830.9487863551892" y="329.0484829439865" as="sourcePoint" />
            <mxPoint x="603.125" y="110" as="targetPoint" />
          </mxGeometry>
        </mxCell>
        <mxCell id="F9EN7Q-eqjH8XVya4wf_-29" value="City" style="ellipse;whiteSpace=wrap;html=1;align=center;rounded=0;" parent="1" vertex="1">
          <mxGeometry x="630" y="60" width="100" height="40" as="geometry" />
        </mxCell>
        <mxCell id="F9EN7Q-eqjH8XVya4wf_-30" value="" style="endArrow=none;html=1;rounded=0;" parent="1" source="F9EN7Q-eqjH8XVya4wf_-31" target="F9EN7Q-eqjH8XVya4wf_-21" edge="1">
          <mxGeometry relative="1" as="geometry">
            <mxPoint x="940.9487863551892" y="339.0484829439865" as="sourcePoint" />
            <mxPoint x="695" y="130" as="targetPoint" />
          </mxGeometry>
        </mxCell>
        <mxCell id="F9EN7Q-eqjH8XVya4wf_-31" value="State" style="ellipse;whiteSpace=wrap;html=1;align=center;rounded=0;" parent="1" vertex="1">
          <mxGeometry x="720" y="100" width="100" height="40" as="geometry" />
        </mxCell>
        <mxCell id="F9EN7Q-eqjH8XVya4wf_-32" value="" style="endArrow=none;html=1;rounded=0;" parent="1" source="F9EN7Q-eqjH8XVya4wf_-33" target="F9EN7Q-eqjH8XVya4wf_-21" edge="1">
          <mxGeometry relative="1" as="geometry">
            <mxPoint x="980.9487863551892" y="439.0484829439865" as="sourcePoint" />
            <mxPoint x="690" y="172.30769230769226" as="targetPoint" />
          </mxGeometry>
        </mxCell>
        <mxCell id="F9EN7Q-eqjH8XVya4wf_-33" value="Latitude" style="ellipse;whiteSpace=wrap;html=1;align=center;rounded=0;" parent="1" vertex="1">
          <mxGeometry x="670" y="190" width="100" height="40" as="geometry" />
        </mxCell>
        <mxCell id="F9EN7Q-eqjH8XVya4wf_-34" value="" style="endArrow=none;html=1;rounded=0;" parent="1" source="F9EN7Q-eqjH8XVya4wf_-35" target="F9EN7Q-eqjH8XVya4wf_-21" edge="1">
          <mxGeometry relative="1" as="geometry">
            <mxPoint x="894.2787863551893" y="449.0484829439865" as="sourcePoint" />
            <mxPoint x="579.9966666666668" y="180" as="targetPoint" />
          </mxGeometry>
        </mxCell>
        <mxCell id="F9EN7Q-eqjH8XVya4wf_-35" value="Longitude" style="ellipse;whiteSpace=wrap;html=1;align=center;rounded=0;" parent="1" vertex="1">
          <mxGeometry x="540" y="190" width="100" height="40" as="geometry" />
        </mxCell>
        <mxCell id="F9EN7Q-eqjH8XVya4wf_-36" value="Item" style="whiteSpace=wrap;html=1;align=center;rounded=0;" parent="1" vertex="1">
          <mxGeometry x="10" y="467.96999999999997" width="100" height="40" as="geometry" />
        </mxCell>
        <mxCell id="F9EN7Q-eqjH8XVya4wf_-38" value="" style="endArrow=none;html=1;rounded=0;" parent="1" source="F9EN7Q-eqjH8XVya4wf_-45" target="F9EN7Q-eqjH8XVya4wf_-36" edge="1">
          <mxGeometry relative="1" as="geometry">
            <mxPoint x="725" y="1017.8899999999999" as="sourcePoint" />
            <mxPoint x="885" y="1017.8899999999999" as="targetPoint" />
          </mxGeometry>
        </mxCell>
        <mxCell id="F9EN7Q-eqjH8XVya4wf_-45" value="Item Number" style="ellipse;whiteSpace=wrap;html=1;align=center;fontStyle=4;rounded=0;" parent="1" vertex="1">
          <mxGeometry x="-130" y="320" width="100" height="40" as="geometry" />
        </mxCell>
        <mxCell id="F9EN7Q-eqjH8XVya4wf_-48" value="d" style="ellipse;whiteSpace=wrap;html=1;align=center;newEdgeStyle={&quot;edgeStyle&quot;:&quot;entityRelationEdgeStyle&quot;,&quot;startArrow&quot;:&quot;none&quot;,&quot;endArrow&quot;:&quot;none&quot;,&quot;segment&quot;:10,&quot;curved&quot;:1};treeFolding=1;treeMoving=1;rounded=0;" parent="1" vertex="1" collapsed="1">
          <mxGeometry x="-210" y="490" width="30" height="30" as="geometry" />
        </mxCell>
        <mxCell id="F9EN7Q-eqjH8XVya4wf_-49" value="" style="shape=link;html=1;rounded=0;entryX=1;entryY=0.5;entryDx=0;entryDy=0;" parent="1" source="F9EN7Q-eqjH8XVya4wf_-36" target="F9EN7Q-eqjH8XVya4wf_-48" edge="1">
          <mxGeometry relative="1" as="geometry">
            <mxPoint x="100" y="497.47" as="sourcePoint" />
            <mxPoint x="260" y="497.47" as="targetPoint" />
          </mxGeometry>
        </mxCell>
        <mxCell id="F9EN7Q-eqjH8XVya4wf_-51" value="Board game" style="rounded=0;whiteSpace=wrap;html=1;" parent="1" vertex="1">
          <mxGeometry x="-330" y="427.97" width="80" height="40" as="geometry" />
        </mxCell>
        <mxCell id="F9EN7Q-eqjH8XVya4wf_-53" value="" style="endArrow=classic;html=1;rounded=0;" parent="1" source="F9EN7Q-eqjH8XVya4wf_-51" target="F9EN7Q-eqjH8XVya4wf_-48" edge="1">
          <mxGeometry width="50" height="50" relative="1" as="geometry">
            <mxPoint x="-278.6363636363635" y="437.96999999999997" as="sourcePoint" />
            <mxPoint x="-155" y="507.96999999999997" as="targetPoint" />
          </mxGeometry>
        </mxCell>
        <mxCell id="F9EN7Q-eqjH8XVya4wf_-57" value="Playing card game" style="rounded=0;whiteSpace=wrap;html=1;" parent="1" vertex="1">
          <mxGeometry x="-435" y="450" width="80" height="40" as="geometry" />
        </mxCell>
        <mxCell id="F9EN7Q-eqjH8XVya4wf_-58" value="" style="endArrow=classic;html=1;rounded=0;" parent="1" source="F9EN7Q-eqjH8XVya4wf_-57" target="F9EN7Q-eqjH8XVya4wf_-48" edge="1">
          <mxGeometry width="50" height="50" relative="1" as="geometry">
            <mxPoint x="-195" y="567.97" as="sourcePoint" />
            <mxPoint x="-316.68368202826605" y="531.065242533175" as="targetPoint" />
          </mxGeometry>
        </mxCell>
        <mxCell id="F9EN7Q-eqjH8XVya4wf_-61" value="Collectible card game" style="rounded=0;whiteSpace=wrap;html=1;" parent="1" vertex="1">
          <mxGeometry x="-480" y="512.97" width="80" height="40" as="geometry" />
        </mxCell>
        <mxCell id="F9EN7Q-eqjH8XVya4wf_-62" value="" style="endArrow=classic;html=1;rounded=0;" parent="1" source="F9EN7Q-eqjH8XVya4wf_-61" target="F9EN7Q-eqjH8XVya4wf_-48" edge="1">
          <mxGeometry width="50" height="50" relative="1" as="geometry">
            <mxPoint x="-195" y="612.97" as="sourcePoint" />
            <mxPoint x="-325.0409836831493" y="571.8619247172704" as="targetPoint" />
          </mxGeometry>
        </mxCell>
        <mxCell id="F9EN7Q-eqjH8XVya4wf_-65" value="&lt;meta charset=&quot;utf-8&quot;&gt;&lt;span style=&quot;color: rgb(0, 0, 0); font-family: Helvetica; font-size: 12px; font-style: normal; font-variant-ligatures: normal; font-variant-caps: normal; font-weight: 400; letter-spacing: normal; orphans: 2; text-align: center; text-indent: 0px; text-transform: none; widows: 2; word-spacing: 0px; -webkit-text-stroke-width: 0px; background-color: rgb(248, 249, 250); text-decoration-thickness: initial; text-decoration-style: initial; text-decoration-color: initial; float: none; display: inline !important;&quot;&gt;Video game&lt;/span&gt;" style="rounded=0;whiteSpace=wrap;html=1;" parent="1" vertex="1">
          <mxGeometry x="-310" y="590" width="80" height="40" as="geometry" />
        </mxCell>
        <mxCell id="F9EN7Q-eqjH8XVya4wf_-66" value="" style="endArrow=classic;html=1;rounded=0;" parent="1" source="F9EN7Q-eqjH8XVya4wf_-65" target="F9EN7Q-eqjH8XVya4wf_-48" edge="1">
          <mxGeometry width="50" height="50" relative="1" as="geometry">
            <mxPoint x="-194.96000000000004" y="667.97" as="sourcePoint" />
            <mxPoint x="-325.00098368314934" y="626.8619247172703" as="targetPoint" />
          </mxGeometry>
        </mxCell>
        <mxCell id="F9EN7Q-eqjH8XVya4wf_-67" value="Computer game" style="rounded=0;whiteSpace=wrap;html=1;" parent="1" vertex="1">
          <mxGeometry x="-430" y="600" width="80" height="40" as="geometry" />
        </mxCell>
        <mxCell id="F9EN7Q-eqjH8XVya4wf_-68" value="" style="endArrow=classic;html=1;rounded=0;" parent="1" source="F9EN7Q-eqjH8XVya4wf_-67" target="F9EN7Q-eqjH8XVya4wf_-48" edge="1">
          <mxGeometry width="50" height="50" relative="1" as="geometry">
            <mxPoint x="-194.96000000000004" y="737.97" as="sourcePoint" />
            <mxPoint x="-325.00098368314934" y="696.8619247172703" as="targetPoint" />
          </mxGeometry>
        </mxCell>
        <mxCell id="F9EN7Q-eqjH8XVya4wf_-69" value="" style="endArrow=none;html=1;rounded=0;" parent="1" source="F9EN7Q-eqjH8XVya4wf_-70" target="F9EN7Q-eqjH8XVya4wf_-65" edge="1">
          <mxGeometry relative="1" as="geometry">
            <mxPoint x="249.27878635518937" y="817.0184829439866" as="sourcePoint" />
            <mxPoint x="-21.666666666666742" y="537.97" as="targetPoint" />
          </mxGeometry>
        </mxCell>
        <mxCell id="F9EN7Q-eqjH8XVya4wf_-70" value="Media" style="ellipse;whiteSpace=wrap;html=1;align=center;rounded=0;" parent="1" vertex="1">
          <mxGeometry x="-350" y="680" width="100" height="40" as="geometry" />
        </mxCell>
        <mxCell id="F9EN7Q-eqjH8XVya4wf_-71" value="" style="endArrow=none;html=1;rounded=0;" parent="1" source="F9EN7Q-eqjH8XVya4wf_-72" target="F9EN7Q-eqjH8XVya4wf_-65" edge="1">
          <mxGeometry relative="1" as="geometry">
            <mxPoint x="-144.31969619160577" y="584.6820202538931" as="sourcePoint" />
            <mxPoint x="-21.666666666666742" y="477.96999999999997" as="targetPoint" />
          </mxGeometry>
        </mxCell>
        <mxCell id="F9EN7Q-eqjH8XVya4wf_-72" value="Platform" style="ellipse;whiteSpace=wrap;html=1;align=center;rounded=0;" parent="1" vertex="1">
          <mxGeometry x="-230" y="660" width="100" height="40" as="geometry" />
        </mxCell>
        <mxCell id="F9EN7Q-eqjH8XVya4wf_-73" value="" style="endArrow=none;html=1;rounded=0;" parent="1" source="F9EN7Q-eqjH8XVya4wf_-74" target="F9EN7Q-eqjH8XVya4wf_-67" edge="1">
          <mxGeometry relative="1" as="geometry">
            <mxPoint x="-10.721213644810746" y="877.0184829439867" as="sourcePoint" />
            <mxPoint x="-445" y="701.0469230769231" as="targetPoint" />
          </mxGeometry>
        </mxCell>
        <mxCell id="F9EN7Q-eqjH8XVya4wf_-74" value="Platform" style="ellipse;whiteSpace=wrap;html=1;align=center;rounded=0;" parent="1" vertex="1">
          <mxGeometry x="-470" y="660" width="100" height="40" as="geometry" />
        </mxCell>
        <mxCell id="F9EN7Q-eqjH8XVya4wf_-75" value="" style="endArrow=none;html=1;rounded=0;" parent="1" source="F9EN7Q-eqjH8XVya4wf_-76" target="F9EN7Q-eqjH8XVya4wf_-36" edge="1">
          <mxGeometry relative="1" as="geometry">
            <mxPoint x="-78.39976642293686" y="510.72107477690133" as="sourcePoint" />
            <mxPoint x="-16.666666666666742" y="577.97" as="targetPoint" />
          </mxGeometry>
        </mxCell>
        <mxCell id="F9EN7Q-eqjH8XVya4wf_-76" value="Condition" style="ellipse;whiteSpace=wrap;html=1;align=center;rounded=0;" parent="1" vertex="1">
          <mxGeometry x="-320" y="340" width="100" height="40" as="geometry" />
        </mxCell>
        <mxCell id="F9EN7Q-eqjH8XVya4wf_-78" value="" style="endArrow=none;html=1;rounded=0;" parent="1" source="F9EN7Q-eqjH8XVya4wf_-79" target="F9EN7Q-eqjH8XVya4wf_-36" edge="1">
          <mxGeometry relative="1" as="geometry">
            <mxPoint x="-93.36221242663214" y="562.4829711179318" as="sourcePoint" />
            <mxPoint x="40" y="527.97" as="targetPoint" />
          </mxGeometry>
        </mxCell>
        <mxCell id="F9EN7Q-eqjH8XVya4wf_-79" value="User-entered description" style="ellipse;whiteSpace=wrap;html=1;align=center;rounded=0;" parent="1" vertex="1">
          <mxGeometry x="-430" y="370" width="100" height="40" as="geometry" />
        </mxCell>
        <mxCell id="F9EN7Q-eqjH8XVya4wf_-81" value="" style="endArrow=none;html=1;rounded=0;" parent="1" source="F9EN7Q-eqjH8XVya4wf_-82" target="F9EN7Q-eqjH8XVya4wf_-36" edge="1">
          <mxGeometry relative="1" as="geometry">
            <mxPoint x="-31.363687273733376" y="525.275211532798" as="sourcePoint" />
            <mxPoint x="-70" y="467.96999999999997" as="targetPoint" />
          </mxGeometry>
        </mxCell>
        <mxCell id="F9EN7Q-eqjH8XVya4wf_-82" value="Title/Name" style="ellipse;whiteSpace=wrap;html=1;align=center;rounded=0;" parent="1" vertex="1">
          <mxGeometry x="-240" y="290" width="100" height="40" as="geometry" />
        </mxCell>
        <mxCell id="F9EN7Q-eqjH8XVya4wf_-83" value="Trade" style="whiteSpace=wrap;html=1;align=center;rounded=0;" parent="1" vertex="1">
          <mxGeometry x="260" y="400" width="100" height="40" as="geometry" />
        </mxCell>
        <mxCell id="F9EN7Q-eqjH8XVya4wf_-102" value="Lists" style="shape=rhombus;double=1;perimeter=rhombusPerimeter;whiteSpace=wrap;html=1;align=center;rounded=0;" parent="1" vertex="1">
          <mxGeometry x="-130" y="170" width="120" height="60" as="geometry" />
        </mxCell>
        <mxCell id="F9EN7Q-eqjH8XVya4wf_-103" value="" style="endArrow=none;html=1;rounded=0;" parent="1" source="F9EN7Q-eqjH8XVya4wf_-4" target="F9EN7Q-eqjH8XVya4wf_-102" edge="1">
          <mxGeometry relative="1" as="geometry">
            <mxPoint x="70" y="210" as="sourcePoint" />
            <mxPoint x="400" y="500" as="targetPoint" />
          </mxGeometry>
        </mxCell>
        <mxCell id="F9EN7Q-eqjH8XVya4wf_-104" value="1" style="resizable=0;html=1;align=right;verticalAlign=bottom;rounded=0;" parent="F9EN7Q-eqjH8XVya4wf_-103" connectable="0" vertex="1">
          <mxGeometry x="1" relative="1" as="geometry">
            <mxPoint x="96" y="-22" as="offset" />
          </mxGeometry>
        </mxCell>
        <mxCell id="F9EN7Q-eqjH8XVya4wf_-105" value="" style="shape=link;html=1;rounded=0;" parent="1" source="F9EN7Q-eqjH8XVya4wf_-102" target="F9EN7Q-eqjH8XVya4wf_-36" edge="1">
          <mxGeometry relative="1" as="geometry">
            <mxPoint x="60" y="300" as="sourcePoint" />
            <mxPoint x="473" y="530" as="targetPoint" />
          </mxGeometry>
        </mxCell>
        <mxCell id="F9EN7Q-eqjH8XVya4wf_-106" value="1" style="resizable=0;html=1;align=right;verticalAlign=bottom;rounded=0;" parent="F9EN7Q-eqjH8XVya4wf_-105" connectable="0" vertex="1">
          <mxGeometry x="1" relative="1" as="geometry">
            <mxPoint x="39" y="-28" as="offset" />
          </mxGeometry>
        </mxCell>
        <mxCell id="F9EN7Q-eqjH8XVya4wf_-110" value="" style="shape=link;html=1;rounded=0;" parent="1" source="F9EN7Q-eqjH8XVya4wf_-83" target="yOJ-OLjHq8p-q_iEUGXP-20" edge="1">
          <mxGeometry relative="1" as="geometry">
            <mxPoint x="353.66316444321546" y="680.6684177783923" as="sourcePoint" />
            <mxPoint x="217.29045279306365" y="520.7650724093232" as="targetPoint" />
          </mxGeometry>
        </mxCell>
        <mxCell id="F9EN7Q-eqjH8XVya4wf_-111" value="1" style="resizable=0;html=1;align=right;verticalAlign=bottom;rounded=0;" parent="F9EN7Q-eqjH8XVya4wf_-110" connectable="0" vertex="1">
          <mxGeometry x="1" relative="1" as="geometry">
            <mxPoint x="42" y="-9" as="offset" />
          </mxGeometry>
        </mxCell>
        <mxCell id="F9EN7Q-eqjH8XVya4wf_-112" value="" style="endArrow=none;html=1;rounded=0;" parent="1" source="yOJ-OLjHq8p-q_iEUGXP-20" target="F9EN7Q-eqjH8XVya4wf_-36" edge="1">
          <mxGeometry relative="1" as="geometry">
            <mxPoint x="151.21859296482398" y="529.2765326633166" as="sourcePoint" />
            <mxPoint x="196.06823529411758" y="454.7858823529412" as="targetPoint" />
          </mxGeometry>
        </mxCell>
        <mxCell id="F9EN7Q-eqjH8XVya4wf_-113" value="1" style="resizable=0;html=1;align=right;verticalAlign=bottom;rounded=0;" parent="F9EN7Q-eqjH8XVya4wf_-112" connectable="0" vertex="1">
          <mxGeometry x="1" relative="1" as="geometry">
            <mxPoint x="11" y="32" as="offset" />
          </mxGeometry>
        </mxCell>
        <mxCell id="F9EN7Q-eqjH8XVya4wf_-114" value="Cannot Be Proposed For" style="shape=rhombus;perimeter=rhombusPerimeter;whiteSpace=wrap;html=1;align=center;rounded=0;" parent="1" vertex="1">
          <mxGeometry x="-110" y="650" width="120" height="60" as="geometry" />
        </mxCell>
        <mxCell id="F9EN7Q-eqjH8XVya4wf_-115" value="" style="endArrow=none;html=1;rounded=0;exitX=0;exitY=0.5;exitDx=0;exitDy=0;" parent="1" source="F9EN7Q-eqjH8XVya4wf_-114" target="F9EN7Q-eqjH8XVya4wf_-36" edge="1">
          <mxGeometry relative="1" as="geometry">
            <mxPoint x="-1.0584615384616427" y="367.96999999999997" as="sourcePoint" />
            <mxPoint x="62.85714285714289" y="487.96999999999997" as="targetPoint" />
          </mxGeometry>
        </mxCell>
        <mxCell id="F9EN7Q-eqjH8XVya4wf_-116" value="N" style="resizable=0;html=1;align=right;verticalAlign=bottom;rounded=0;" parent="F9EN7Q-eqjH8XVya4wf_-115" connectable="0" vertex="1">
          <mxGeometry x="1" relative="1" as="geometry">
            <mxPoint x="-64" y="80" as="offset" />
          </mxGeometry>
        </mxCell>
        <mxCell id="F9EN7Q-eqjH8XVya4wf_-117" value="" style="endArrow=none;html=1;rounded=0;exitX=1;exitY=0.5;exitDx=0;exitDy=0;" parent="1" source="F9EN7Q-eqjH8XVya4wf_-114" target="F9EN7Q-eqjH8XVya4wf_-36" edge="1">
          <mxGeometry relative="1" as="geometry">
            <mxPoint y="707.97" as="sourcePoint" />
            <mxPoint x="54" y="527.97" as="targetPoint" />
          </mxGeometry>
        </mxCell>
        <mxCell id="F9EN7Q-eqjH8XVya4wf_-118" value="M" style="resizable=0;html=1;align=right;verticalAlign=bottom;rounded=0;" parent="F9EN7Q-eqjH8XVya4wf_-117" connectable="0" vertex="1">
          <mxGeometry x="1" relative="1" as="geometry">
            <mxPoint x="-7" y="80" as="offset" />
          </mxGeometry>
        </mxCell>
        <mxCell id="k_lPkYLBhMXzpmio_ryh-2" value="" style="shape=link;html=1;rounded=0;startFill=1;" parent="1" source="F9EN7Q-eqjH8XVya4wf_-83" target="yOJ-OLjHq8p-q_iEUGXP-19" edge="1">
          <mxGeometry relative="1" as="geometry">
            <mxPoint x="392.63351176397373" y="779.6700000000001" as="sourcePoint" />
            <mxPoint x="168.12639821029097" y="393.8702460850111" as="targetPoint" />
          </mxGeometry>
        </mxCell>
        <mxCell id="k_lPkYLBhMXzpmio_ryh-3" value="1" style="resizable=0;html=1;align=right;verticalAlign=bottom;rounded=0;" parent="k_lPkYLBhMXzpmio_ryh-2" connectable="0" vertex="1">
          <mxGeometry x="1" relative="1" as="geometry">
            <mxPoint x="17" y="24" as="offset" />
          </mxGeometry>
        </mxCell>
        <mxCell id="k_lPkYLBhMXzpmio_ryh-4" value="" style="endArrow=none;html=1;rounded=0;" parent="1" source="yOJ-OLjHq8p-q_iEUGXP-19" target="F9EN7Q-eqjH8XVya4wf_-36" edge="1">
          <mxGeometry relative="1" as="geometry">
            <mxPoint x="100.79064205649297" y="411.3758152549642" as="sourcePoint" />
            <mxPoint x="56.25" y="487.96999999999997" as="targetPoint" />
          </mxGeometry>
        </mxCell>
        <mxCell id="k_lPkYLBhMXzpmio_ryh-5" value="N" style="resizable=0;html=1;align=right;verticalAlign=bottom;rounded=0;" parent="k_lPkYLBhMXzpmio_ryh-4" connectable="0" vertex="1">
          <mxGeometry x="1" relative="1" as="geometry">
            <mxPoint x="-76" y="-148" as="offset" />
          </mxGeometry>
        </mxCell>
        <mxCell id="k_lPkYLBhMXzpmio_ryh-6" value="" style="endArrow=none;html=1;rounded=0;" parent="1" source="k_lPkYLBhMXzpmio_ryh-7" target="F9EN7Q-eqjH8XVya4wf_-83" edge="1">
          <mxGeometry relative="1" as="geometry">
            <mxPoint x="479.27878635518925" y="899.0484829439865" as="sourcePoint" />
            <mxPoint x="208.33333333333348" y="620" as="targetPoint" />
          </mxGeometry>
        </mxCell>
        <mxCell id="k_lPkYLBhMXzpmio_ryh-7" value="Date proposed" style="ellipse;whiteSpace=wrap;html=1;align=center;rounded=0;" parent="1" vertex="1">
          <mxGeometry x="425" y="300" width="100" height="40" as="geometry" />
        </mxCell>
        <mxCell id="k_lPkYLBhMXzpmio_ryh-8" value="" style="endArrow=none;html=1;rounded=0;" parent="1" source="k_lPkYLBhMXzpmio_ryh-9" target="F9EN7Q-eqjH8XVya4wf_-83" edge="1">
          <mxGeometry relative="1" as="geometry">
            <mxPoint x="744.2787863551893" y="889.0484829439865" as="sourcePoint" />
            <mxPoint x="530" y="662.8571428571429" as="targetPoint" />
          </mxGeometry>
        </mxCell>
        <mxCell id="k_lPkYLBhMXzpmio_ryh-9" value="Status: pending/accepted/rejected" style="ellipse;whiteSpace=wrap;html=1;align=center;rounded=0;" parent="1" vertex="1">
          <mxGeometry x="440" y="390" width="120" height="50" as="geometry" />
        </mxCell>
        <mxCell id="k_lPkYLBhMXzpmio_ryh-10" value="" style="endArrow=none;html=1;rounded=0;" parent="1" source="k_lPkYLBhMXzpmio_ryh-11" target="F9EN7Q-eqjH8XVya4wf_-83" edge="1">
          <mxGeometry relative="1" as="geometry">
            <mxPoint x="824.2787863551893" y="924.0484829439865" as="sourcePoint" />
            <mxPoint x="410.7142857142858" y="695" as="targetPoint" />
          </mxGeometry>
        </mxCell>
        <mxCell id="k_lPkYLBhMXzpmio_ryh-11" value="Date Accepted/Rejected" style="ellipse;whiteSpace=wrap;html=1;align=center;rounded=0;" parent="1" vertex="1">
          <mxGeometry x="340" y="490" width="120" height="50" as="geometry" />
        </mxCell>
        <mxCell id="yOJ-OLjHq8p-q_iEUGXP-9" value="" style="shape=link;html=1;rounded=0;startFill=1;" parent="1" source="F9EN7Q-eqjH8XVya4wf_-83" target="yOJ-OLjHq8p-q_iEUGXP-17" edge="1">
          <mxGeometry relative="1" as="geometry">
            <mxPoint x="306.87" y="350.0013698630136" as="sourcePoint" />
            <mxPoint x="153.80000000000018" y="288.1" as="targetPoint" />
          </mxGeometry>
        </mxCell>
        <mxCell id="yOJ-OLjHq8p-q_iEUGXP-10" value="N" style="resizable=0;html=1;align=right;verticalAlign=bottom;rounded=0;" parent="yOJ-OLjHq8p-q_iEUGXP-9" connectable="0" vertex="1">
          <mxGeometry x="1" relative="1" as="geometry">
            <mxPoint x="42" y="30" as="offset" />
          </mxGeometry>
        </mxCell>
        <mxCell id="yOJ-OLjHq8p-q_iEUGXP-11" value="" style="shape=link;html=1;rounded=0;startFill=1;" parent="1" source="F9EN7Q-eqjH8XVya4wf_-83" target="yOJ-OLjHq8p-q_iEUGXP-18" edge="1">
          <mxGeometry relative="1" as="geometry">
            <mxPoint x="295.4545454545455" y="420" as="sourcePoint" />
            <mxPoint x="363.75" y="280" as="targetPoint" />
          </mxGeometry>
        </mxCell>
        <mxCell id="yOJ-OLjHq8p-q_iEUGXP-12" value="N" style="resizable=0;html=1;align=right;verticalAlign=bottom;rounded=0;" parent="yOJ-OLjHq8p-q_iEUGXP-11" connectable="0" vertex="1">
          <mxGeometry x="1" relative="1" as="geometry">
            <mxPoint x="6" y="55" as="offset" />
          </mxGeometry>
        </mxCell>
        <mxCell id="yOJ-OLjHq8p-q_iEUGXP-13" value="" style="endArrow=none;html=1;rounded=0;" parent="1" source="F9EN7Q-eqjH8XVya4wf_-4" target="yOJ-OLjHq8p-q_iEUGXP-17" edge="1">
          <mxGeometry relative="1" as="geometry">
            <mxPoint x="160" y="169.25925925925924" as="sourcePoint" />
            <mxPoint x="146.33333333333348" y="238.16666666666663" as="targetPoint" />
          </mxGeometry>
        </mxCell>
        <mxCell id="yOJ-OLjHq8p-q_iEUGXP-14" value="1" style="resizable=0;html=1;align=right;verticalAlign=bottom;rounded=0;" parent="yOJ-OLjHq8p-q_iEUGXP-13" connectable="0" vertex="1">
          <mxGeometry x="1" relative="1" as="geometry">
            <mxPoint x="46" y="-18" as="offset" />
          </mxGeometry>
        </mxCell>
        <mxCell id="yOJ-OLjHq8p-q_iEUGXP-15" value="" style="endArrow=none;html=1;rounded=0;" parent="1" source="F9EN7Q-eqjH8XVya4wf_-4" target="yOJ-OLjHq8p-q_iEUGXP-18" edge="1">
          <mxGeometry relative="1" as="geometry">
            <mxPoint x="197.82608695652198" y="180" as="sourcePoint" />
            <mxPoint x="363.4019165727168" y="250.21984216459975" as="targetPoint" />
          </mxGeometry>
        </mxCell>
        <mxCell id="yOJ-OLjHq8p-q_iEUGXP-16" value="1" style="resizable=0;html=1;align=right;verticalAlign=bottom;rounded=0;" parent="yOJ-OLjHq8p-q_iEUGXP-15" connectable="0" vertex="1">
          <mxGeometry x="1" relative="1" as="geometry">
            <mxPoint x="-63" y="-40" as="offset" />
          </mxGeometry>
        </mxCell>
        <mxCell id="yOJ-OLjHq8p-q_iEUGXP-17" value="As proposer" style="shape=rhombus;double=1;perimeter=rhombusPerimeter;whiteSpace=wrap;html=1;align=center;" parent="1" vertex="1">
          <mxGeometry x="90" y="230" width="120" height="60" as="geometry" />
        </mxCell>
        <mxCell id="yOJ-OLjHq8p-q_iEUGXP-18" value="As counterparty" style="shape=rhombus;double=1;perimeter=rhombusPerimeter;whiteSpace=wrap;html=1;align=center;" parent="1" vertex="1">
          <mxGeometry x="300" y="230" width="120" height="60" as="geometry" />
        </mxCell>
        <mxCell id="yOJ-OLjHq8p-q_iEUGXP-19" value="is being sought after in the trade" style="shape=rhombus;double=1;perimeter=rhombusPerimeter;whiteSpace=wrap;html=1;align=center;" parent="1" vertex="1">
          <mxGeometry x="40" y="320" width="160" height="90" as="geometry" />
        </mxCell>
        <mxCell id="yOJ-OLjHq8p-q_iEUGXP-20" value="is being offered in the trade" style="shape=rhombus;double=1;perimeter=rhombusPerimeter;whiteSpace=wrap;html=1;align=center;" parent="1" vertex="1">
          <mxGeometry x="132.5" y="530" width="135" height="77.03" as="geometry" />
        </mxCell>
      </root>
    </mxGraphModel>
  </diagram>
</mxfile>
